<svg width="27" height="27" viewBox="0 0 27 27" fill="none" xmlns="http://www.w3.org/2000/svg">
<g clip-path="url(#clip0_4736_5735)">
<path d="M20.1936 13.8809C20.2303 17.8349 23.6622 19.1506 23.7003 19.1674C23.6713 19.2601 23.1519 21.0424 21.8922 22.8834C20.8031 24.4751 19.6729 26.0609 17.8925 26.0937C16.143 26.126 15.5805 25.0563 13.5803 25.0563C11.5808 25.0563 10.9558 26.0609 9.29969 26.126C7.58111 26.1911 6.27238 24.4049 5.17438 22.8191C2.93066 19.5752 1.21599 13.6528 3.51836 9.655C4.66212 7.6697 6.70612 6.41252 8.92469 6.38028C10.6123 6.34809 12.2052 7.51564 13.2369 7.51564C14.2679 7.51564 16.2036 6.11155 18.2385 6.31776C19.0904 6.35322 21.4817 6.66188 23.0172 8.90947C22.8935 8.98617 20.1639 10.5752 20.1936 13.8809ZM16.9057 4.17169C17.8181 3.06725 18.4322 1.52978 18.2646 0C16.9495 0.0528587 15.3591 0.876391 14.4158 1.98022C13.5704 2.95771 12.83 4.52224 13.0298 6.02174C14.4957 6.13516 15.9932 5.27682 16.9057 4.17169Z" fill="white"/>
</g>
<defs>
<clipPath id="clip0_4736_5735">
<rect width="26.1278" height="26.1278" fill="white"/>
</clipPath>
</defs>
</svg>
