<svg width="61" height="58" viewBox="0 0 61 58" fill="none" xmlns="http://www.w3.org/2000/svg">
<rect x="0.5" y="0.970215" width="60" height="56" rx="28" fill="#F4FBF8"/>
<rect x="0.5" y="0.970215" width="60" height="56" rx="28" stroke="url(#paint0_linear_701_2405)"/>
<path d="M24.8235 38.4297V34.9391C22.8559 34.6743 21.2289 33.7946 19.9424 32.3C18.6559 30.8054 18.0127 29.0648 18.0127 27.0783H20.283C20.283 28.6486 20.8363 29.9871 21.9431 31.0939C23.0499 32.2006 24.3884 32.754 25.9586 32.754H26.2424C26.337 32.754 26.4316 32.7446 26.5262 32.7256C26.7722 33.104 27.037 33.4587 27.3208 33.7898C27.6046 34.1209 27.9073 34.4283 28.2289 34.7121C28.0397 34.7689 27.8553 34.8114 27.6755 34.8398C27.4958 34.8682 27.3019 34.9013 27.0938 34.9391V38.4297H24.8235ZM25.3911 30.427C24.5776 30.2756 23.9012 29.8925 23.362 29.2777C22.8228 28.6628 22.5532 27.9297 22.5532 27.0783V20.2675C22.5532 19.3216 22.8843 18.5175 23.5465 17.8554C24.2086 17.1932 25.0127 16.8621 25.9586 16.8621C26.9046 16.8621 27.7086 17.1932 28.3708 17.8554C29.033 18.5175 29.364 19.3216 29.364 20.2675V24.8081H24.8235V27.0783C24.8235 27.6648 24.8708 28.2371 24.9654 28.7952C25.06 29.3533 25.2019 29.8973 25.3911 30.427ZM35.0397 30.4837C34.0938 30.4837 33.2897 30.1527 32.6276 29.4905C31.9654 28.8283 31.6343 28.0243 31.6343 27.0783V20.2675C31.6343 19.3216 31.9654 18.5175 32.6276 17.8554C33.2897 17.1932 34.0938 16.8621 35.0397 16.8621C35.9857 16.8621 36.7897 17.1932 37.4519 17.8554C38.114 18.5175 38.4451 19.3216 38.4451 20.2675V27.0783C38.4451 28.0243 38.114 28.8283 37.4519 29.4905C36.7897 30.1527 35.9857 30.4837 35.0397 30.4837ZM33.9046 38.4297V34.9391C31.937 34.6743 30.31 33.7946 29.0235 32.3C27.737 30.8054 27.0938 29.0648 27.0938 27.0783H29.364C29.364 28.6486 29.9174 29.9871 31.0242 31.0939C32.1309 32.2006 33.4695 32.754 35.0397 32.754C36.61 32.754 37.9485 32.2006 39.0553 31.0939C40.162 29.9871 40.7154 28.6486 40.7154 27.0783H42.9857C42.9857 29.0648 42.3424 30.8054 41.0559 32.3C39.7695 33.7946 38.1424 34.6743 36.1749 34.9391V38.4297H33.9046ZM35.0397 28.2135C35.3613 28.2135 35.6309 28.1047 35.8485 27.8871C36.0661 27.6696 36.1749 27.4 36.1749 27.0783V20.2675C36.1749 19.9459 36.0661 19.6763 35.8485 19.4587C35.6309 19.2412 35.3613 19.1324 35.0397 19.1324C34.7181 19.1324 34.4485 19.2412 34.2309 19.4587C34.0134 19.6763 33.9046 19.9459 33.9046 20.2675V27.0783C33.9046 27.4 34.0134 27.6696 34.2309 27.8871C34.4485 28.1047 34.7181 28.2135 35.0397 28.2135Z" fill="#21A774"/>
<defs>
<linearGradient id="paint0_linear_701_2405" x1="3.29662" y1="57.4702" x2="61" y2="4.32237" gradientUnits="userSpaceOnUse">
<stop stop-color="#22AD78" stop-opacity="0"/>
<stop offset="1" stop-color="#22AD78"/>
</linearGradient>
</defs>
</svg>
