<svg width="97" height="65" viewBox="0 0 97 65" fill="none" xmlns="http://www.w3.org/2000/svg">
<g clip-path="url(#clip0_567_2469)">
<path d="M75.5001 10.97H40.9001C40.7117 10.9699 40.5271 11.0231 40.3676 11.1234C40.2081 11.2237 40.0802 11.3671 39.9986 11.5369C39.917 11.7067 39.885 11.8961 39.9063 12.0833C39.9277 12.2705 40.0015 12.4479 40.1193 12.595L44.5193 18.095C44.9862 18.6812 45.5795 19.1544 46.255 19.4791C46.9305 19.8038 47.6706 19.9716 48.4201 19.97H79.5001C79.7653 19.97 80.0196 19.8646 80.2072 19.6771C80.3947 19.4895 80.5001 19.2352 80.5001 18.97V15.97C80.4985 14.6444 79.9712 13.3735 79.0339 12.4362C78.0965 11.4988 76.8257 10.9715 75.5001 10.97Z" fill="#155F81"/>
<path d="M80.5 17.97H48.42C47.9709 17.97 47.5275 17.869 47.1227 17.6744C46.7179 17.4799 46.3621 17.1968 46.0815 16.8461L41.08 10.594C40.4261 9.7739 39.5954 9.11201 38.65 8.65767C37.7046 8.20333 36.6689 7.96826 35.62 7.96998H21.5C20.1739 7.96998 18.9021 8.49676 17.9645 9.43445C17.0268 10.3721 16.5 11.6439 16.5 12.97V52.97C16.5 54.2961 17.0268 55.5678 17.9645 56.5055C18.9021 57.4432 20.1739 57.97 21.5 57.97H75.5C76.8261 57.97 78.0979 57.4432 79.0355 56.5055C79.9732 55.5678 80.5 54.2961 80.5 52.97V17.97Z" fill="#21A774"/>
</g>
<defs>
<clipPath id="clip0_567_2469">
<rect width="64" height="64" fill="white" transform="translate(16.5 0.969971)"/>
</clipPath>
</defs>
</svg>
