<svg width="23" height="27" viewBox="0 0 23 27" fill="none" xmlns="http://www.w3.org/2000/svg">
<mask id="mask0_4736_5739" style="mask-type:luminance" maskUnits="userSpaceOnUse" x="0" y="0" width="23" height="27">
<path d="M0.515625 0.393555C0.591722 0.359809 0.755302 0.350351 0.982422 0.481445C1.2751 0.650409 3.9111 2.17171 6.47363 3.65137C7.75493 4.39122 9.01826 5.12071 9.96094 5.66504C10.4322 5.93718 10.8233 6.16341 11.0967 6.32129C11.2334 6.40023 11.341 6.46171 11.4141 6.50391C11.4506 6.525 11.4782 6.54185 11.4971 6.55273C11.5064 6.55812 11.5138 6.56169 11.5186 6.56445C11.5209 6.56584 11.5232 6.56669 11.5244 6.56738L11.5254 6.56836H11.5264L16.9912 9.72461C16.9918 9.72493 16.9931 9.72497 16.9941 9.72559C16.9964 9.72692 17.0004 9.72881 17.0049 9.73145C17.0139 9.73671 17.0275 9.74473 17.0449 9.75488C17.08 9.77528 17.1317 9.80561 17.1973 9.84375C17.3287 9.92015 17.5167 10.03 17.7441 10.1621C18.1995 10.4266 18.8125 10.7821 19.4414 11.1465C20.6946 11.8726 22.0251 12.6402 22.292 12.7842V12.7852C22.4902 12.8919 22.5046 12.9836 22.5049 12.9961C22.505 13.0046 22.4983 13.1135 22.2451 13.2598C21.9365 13.4379 20.6238 14.1966 19.3877 14.9102C18.7695 15.2671 18.17 15.6126 17.7256 15.8691C17.5035 15.9973 17.3204 16.1038 17.1924 16.1777C17.1285 16.2146 17.0781 16.243 17.0439 16.2627C17.027 16.2725 17.0137 16.2801 17.0049 16.2852C17.0006 16.2876 16.9973 16.2897 16.9951 16.291C16.994 16.2917 16.9927 16.2926 16.9922 16.293H16.9912L11.5264 19.4482L11.5254 19.4492H11.5244C11.5232 19.4499 11.521 19.4517 11.5186 19.4531C11.5136 19.456 11.5058 19.4602 11.4961 19.4658C11.4766 19.4771 11.4477 19.494 11.4102 19.5156C11.3348 19.5592 11.2239 19.6228 11.083 19.7041C10.801 19.8669 10.3978 20.1005 9.91211 20.3809C8.94063 20.9418 7.63969 21.692 6.32324 22.4521C3.69031 23.9724 0.993551 25.5298 0.739258 25.6768C0.552824 25.7842 0.46052 25.7544 0.442383 25.7451C0.432889 25.7402 0.37207 25.7037 0.37207 25.5342L0.37207 0.732422C0.37207 0.487101 0.463415 0.416735 0.515625 0.393555Z" fill="white" stroke="white" stroke-width="0.743473"/>
</mask>
<g mask="url(#mask0_4736_5739)">
<path d="M13.0127 13.0078L0.37207 25.542L0.37207 0.473633L13.0127 13.0078Z" fill="white" stroke="#20A07E" stroke-width="0.743473"/>
</g>
<mask id="mask1_4736_5739" style="mask-type:luminance" maskUnits="userSpaceOnUse" x="0" y="0" width="23" height="27">
<path d="M0.515625 0.393555C0.591722 0.359809 0.755302 0.350351 0.982422 0.481445C1.2751 0.650409 3.9111 2.17171 6.47363 3.65137C7.75493 4.39122 9.01826 5.12071 9.96094 5.66504C10.4322 5.93718 10.8233 6.16341 11.0967 6.32129C11.2334 6.40023 11.341 6.46171 11.4141 6.50391C11.4506 6.525 11.4782 6.54185 11.4971 6.55273C11.5064 6.55812 11.5138 6.56169 11.5186 6.56445C11.5209 6.56584 11.5232 6.56669 11.5244 6.56738L11.5254 6.56836H11.5264L16.9912 9.72461C16.9918 9.72493 16.9931 9.72497 16.9941 9.72559C16.9964 9.72692 17.0004 9.72881 17.0049 9.73145C17.0139 9.73671 17.0275 9.74473 17.0449 9.75488C17.08 9.77528 17.1317 9.80561 17.1973 9.84375C17.3287 9.92015 17.5167 10.03 17.7441 10.1621C18.1995 10.4266 18.8125 10.7821 19.4414 11.1465C20.6946 11.8726 22.0251 12.6402 22.292 12.7842V12.7852C22.4902 12.8919 22.5046 12.9836 22.5049 12.9961C22.505 13.0046 22.4983 13.1135 22.2451 13.2598C21.9365 13.4379 20.6238 14.1966 19.3877 14.9102C18.7695 15.2671 18.17 15.6126 17.7256 15.8691C17.5035 15.9973 17.3204 16.1038 17.1924 16.1777C17.1285 16.2146 17.0781 16.243 17.0439 16.2627C17.027 16.2725 17.0137 16.2801 17.0049 16.2852C17.0006 16.2876 16.9973 16.2897 16.9951 16.291C16.994 16.2917 16.9927 16.2926 16.9922 16.293H16.9912L11.5264 19.4482L11.5254 19.4492H11.5244C11.5232 19.4499 11.521 19.4517 11.5186 19.4531C11.5136 19.456 11.5058 19.4602 11.4961 19.4658C11.4766 19.4771 11.4477 19.494 11.4102 19.5156C11.3348 19.5592 11.2239 19.6228 11.083 19.7041C10.801 19.8669 10.3978 20.1005 9.91211 20.3809C8.94063 20.9418 7.63969 21.692 6.32324 22.4521C3.69031 23.9724 0.993551 25.5298 0.739258 25.6768C0.552824 25.7842 0.46052 25.7544 0.442383 25.7451C0.432889 25.7402 0.37207 25.7037 0.37207 25.5342L0.37207 0.732422C0.37207 0.487101 0.463415 0.416735 0.515625 0.393555Z" fill="white" stroke="white" stroke-width="0.743473"/>
</mask>
<g mask="url(#mask1_4736_5739)">
<path d="M11.5254 6.56836L16.5693 9.48047L13.54 12.4844L2.06445 1.10547L11.5254 6.56836Z" fill="white" stroke="#20A07E" stroke-width="0.743473"/>
</g>
<mask id="mask2_4736_5739" style="mask-type:luminance" maskUnits="userSpaceOnUse" x="0" y="0" width="23" height="27">
<path d="M0.515625 0.393555C0.591722 0.359809 0.755302 0.350351 0.982422 0.481445C1.2751 0.650409 3.9111 2.17171 6.47363 3.65137C7.75493 4.39122 9.01826 5.12071 9.96094 5.66504C10.4322 5.93718 10.8233 6.16341 11.0967 6.32129C11.2334 6.40023 11.341 6.46171 11.4141 6.50391C11.4506 6.525 11.4782 6.54185 11.4971 6.55273C11.5064 6.55812 11.5138 6.56169 11.5186 6.56445C11.5209 6.56584 11.5232 6.56669 11.5244 6.56738L11.5254 6.56836H11.5264L16.9912 9.72461C16.9918 9.72493 16.9931 9.72497 16.9941 9.72559C16.9964 9.72692 17.0004 9.72881 17.0049 9.73145C17.0139 9.73671 17.0275 9.74473 17.0449 9.75488C17.08 9.77528 17.1317 9.80561 17.1973 9.84375C17.3287 9.92015 17.5167 10.03 17.7441 10.1621C18.1995 10.4266 18.8125 10.7821 19.4414 11.1465C20.6946 11.8726 22.0251 12.6402 22.292 12.7842V12.7852C22.4902 12.8919 22.5046 12.9836 22.5049 12.9961C22.505 13.0046 22.4983 13.1135 22.2451 13.2598C21.9365 13.4379 20.6238 14.1966 19.3877 14.9102C18.7695 15.2671 18.17 15.6126 17.7256 15.8691C17.5035 15.9973 17.3204 16.1038 17.1924 16.1777C17.1285 16.2146 17.0781 16.243 17.0439 16.2627C17.027 16.2725 17.0137 16.2801 17.0049 16.2852C17.0006 16.2876 16.9973 16.2897 16.9951 16.291C16.994 16.2917 16.9927 16.2926 16.9922 16.293H16.9912L11.5264 19.4482L11.5254 19.4492H11.5244C11.5232 19.4499 11.521 19.4517 11.5186 19.4531C11.5136 19.456 11.5058 19.4602 11.4961 19.4658C11.4766 19.4771 11.4477 19.494 11.4102 19.5156C11.3348 19.5592 11.2239 19.6228 11.083 19.7041C10.801 19.8669 10.3978 20.1005 9.91211 20.3809C8.94063 20.9418 7.63969 21.692 6.32324 22.4521C3.69031 23.9724 0.993551 25.5298 0.739258 25.6768C0.552824 25.7842 0.46052 25.7544 0.442383 25.7451C0.432889 25.7402 0.37207 25.7037 0.37207 25.5342L0.37207 0.732422C0.37207 0.487101 0.463415 0.416735 0.515625 0.393555Z" fill="white" stroke="white" stroke-width="0.743473"/>
</mask>
<g mask="url(#mask2_4736_5739)">
<path d="M16.5693 16.5352L11.5254 19.4473L2.06445 24.9102L13.54 13.5303L16.5693 16.5352Z" fill="white" stroke="#20A07E" stroke-width="0.743473"/>
</g>
<mask id="mask3_4736_5739" style="mask-type:luminance" maskUnits="userSpaceOnUse" x="0" y="0" width="23" height="27">
<path d="M0.515625 0.393555C0.591722 0.359809 0.755302 0.350351 0.982422 0.481445C1.2751 0.650409 3.9111 2.17171 6.47363 3.65137C7.75493 4.39122 9.01826 5.12071 9.96094 5.66504C10.4322 5.93718 10.8233 6.16341 11.0967 6.32129C11.2334 6.40023 11.341 6.46171 11.4141 6.50391C11.4506 6.525 11.4782 6.54185 11.4971 6.55273C11.5064 6.55812 11.5138 6.56169 11.5186 6.56445C11.5209 6.56584 11.5232 6.56669 11.5244 6.56738L11.5254 6.56836H11.5264L16.9912 9.72461C16.9918 9.72493 16.9931 9.72497 16.9941 9.72559C16.9964 9.72692 17.0004 9.72881 17.0049 9.73145C17.0139 9.73671 17.0275 9.74473 17.0449 9.75488C17.08 9.77528 17.1317 9.80561 17.1973 9.84375C17.3287 9.92015 17.5167 10.03 17.7441 10.1621C18.1995 10.4266 18.8125 10.7821 19.4414 11.1465C20.6946 11.8726 22.0251 12.6402 22.292 12.7842V12.7852C22.4902 12.8919 22.5046 12.9836 22.5049 12.9961C22.505 13.0046 22.4983 13.1135 22.2451 13.2598C21.9365 13.4379 20.6238 14.1966 19.3877 14.9102C18.7695 15.2671 18.17 15.6126 17.7256 15.8691C17.5035 15.9973 17.3204 16.1038 17.1924 16.1777C17.1285 16.2146 17.0781 16.243 17.0439 16.2627C17.027 16.2725 17.0137 16.2801 17.0049 16.2852C17.0006 16.2876 16.9973 16.2897 16.9951 16.291C16.994 16.2917 16.9927 16.2926 16.9922 16.293H16.9912L11.5264 19.4482L11.5254 19.4492H11.5244C11.5232 19.4499 11.521 19.4517 11.5186 19.4531C11.5136 19.456 11.5058 19.4602 11.4961 19.4658C11.4766 19.4771 11.4477 19.494 11.4102 19.5156C11.3348 19.5592 11.2239 19.6228 11.083 19.7041C10.801 19.8669 10.3978 20.1005 9.91211 20.3809C8.94063 20.9418 7.63969 21.692 6.32324 22.4521C3.69031 23.9724 0.993551 25.5298 0.739258 25.6768C0.552824 25.7842 0.46052 25.7544 0.442383 25.7451C0.432889 25.7402 0.37207 25.7037 0.37207 25.5342L0.37207 0.732422C0.37207 0.487101 0.463415 0.416735 0.515625 0.393555Z" fill="white" stroke="white" stroke-width="0.743473"/>
</mask>
<g mask="url(#mask3_4736_5739)">
<path d="M22.6787 13.0078L17.2354 16.1504L14.0664 13.0078L17.2354 9.86621L22.6787 13.0078Z" fill="white" stroke="#20A07E" stroke-width="0.743473"/>
</g>
</svg>
