<svg width="42" height="42" viewBox="0 0 42 42" fill="none" xmlns="http://www.w3.org/2000/svg">
<rect width="42" height="42" rx="21" fill="white"/>
<path d="M16 32C15.45 32 14.9792 31.8042 14.5875 31.4125C14.1958 31.0208 14 30.55 14 30V12C14 11.45 14.1958 10.9792 14.5875 10.5875C14.9792 10.1958 15.45 10 16 10H26C26.55 10 27.0208 10.1958 27.4125 10.5875C27.8042 10.9792 28 11.45 28 12V15.1C28.3 15.2167 28.5417 15.4 28.725 15.65C28.9083 15.9 29 16.1833 29 16.5V18.5C29 18.8167 28.9083 19.1 28.725 19.35C28.5417 19.6 28.3 19.7833 28 19.9V30C28 30.55 27.8042 31.0208 27.4125 31.4125C27.0208 31.8042 26.55 32 26 32H16ZM16 30H26V12H16V30ZM21 26C21.2833 26 21.5292 25.8958 21.7375 25.6875C21.9458 25.4792 22.05 25.2333 22.05 24.95C22.05 24.6667 21.9458 24.4208 21.7375 24.2125C21.5292 24.0042 21.2833 23.9 21 23.9C20.7167 23.9 20.4708 24.0042 20.2625 24.2125C20.0542 24.4208 19.95 24.6667 19.95 24.95C19.95 25.2333 20.0542 25.4792 20.2625 25.6875C20.4708 25.8958 20.7167 26 21 26ZM20.25 22.8H21.75C21.75 22.2667 21.8 21.9 21.9 21.7C22 21.5 22.3 21.15 22.8 20.65C23.1 20.35 23.35 20.025 23.55 19.675C23.75 19.325 23.85 18.95 23.85 18.55C23.85 17.7 23.5708 17.0625 23.0125 16.6375C22.4542 16.2125 21.7833 16 21 16C20.2667 16 19.6583 16.2042 19.175 16.6125C18.6917 17.0208 18.35 17.5167 18.15 18.1L19.5 18.65C19.5833 18.3667 19.7417 18.0958 19.975 17.8375C20.2083 17.5792 20.55 17.45 21 17.45C21.45 17.45 21.7875 17.5667 22.0125 17.8C22.2375 18.0333 22.35 18.3 22.35 18.6C22.35 18.8833 22.2667 19.1375 22.1 19.3625C21.9333 19.5875 21.7333 19.8167 21.5 20.05C20.9167 20.55 20.5625 20.9417 20.4375 21.225C20.3125 21.5083 20.25 22.0333 20.25 22.8Z" fill="#1C9085"/>
</svg>
