<svg width="42" height="42" viewBox="0 0 42 42" fill="none" xmlns="http://www.w3.org/2000/svg">
<rect width="42" height="42" rx="21" fill="white"/>
<path d="M17 22H19V19C19 18.45 19.1958 17.9792 19.5875 17.5875C19.9792 17.1958 20.45 17 21 17V15C19.9 15 18.9583 15.3917 18.175 16.175C17.3917 16.9583 17 17.9 17 19V22ZM13 30C12.45 30 11.9792 29.8042 11.5875 29.4125C11.1958 29.0208 11 28.55 11 28V26C11 25.45 11.1958 24.9792 11.5875 24.5875C11.9792 24.1958 12.45 24 13 24H14V19C14 17.05 14.6792 15.3958 16.0375 14.0375C17.3958 12.6792 19.05 12 21 12C22.95 12 24.6042 12.6792 25.9625 14.0375C27.3208 15.3958 28 17.05 28 19V20.075C27.8333 20.0417 27.6708 20.0208 27.5125 20.0125C27.3542 20.0042 27.1833 20 27 20C26.8167 20 26.6458 20.0042 26.4875 20.0125C26.3292 20.0208 26.1667 20.0417 26 20.075V19C26 17.6167 25.5125 16.4375 24.5375 15.4625C23.5625 14.4875 22.3833 14 21 14C19.6167 14 18.4375 14.4875 17.4625 15.4625C16.4875 16.4375 16 17.6167 16 19V24H20.675C20.525 24.3167 20.4 24.6417 20.3 24.975C20.2 25.3083 20.125 25.65 20.075 26H13V28H20.075C20.125 28.35 20.2 28.6917 20.3 29.025C20.4 29.3583 20.525 29.6833 20.675 30H13ZM27 32C25.6167 32 24.4375 31.5125 23.4625 30.5375C22.4875 29.5625 22 28.3833 22 27C22 25.6167 22.4875 24.4375 23.4625 23.4625C24.4375 22.4875 25.6167 22 27 22C28.3833 22 29.5625 22.4875 30.5375 23.4625C31.5125 24.4375 32 25.6167 32 27C32 28.3833 31.5125 29.5625 30.5375 30.5375C29.5625 31.5125 28.3833 32 27 32ZM27 30C27.1833 30 27.3333 29.9417 27.45 29.825C27.5667 29.7083 27.625 29.5583 27.625 29.375C27.625 29.1917 27.5667 29.0417 27.45 28.925C27.3333 28.8083 27.1833 28.75 27 28.75C26.8167 28.75 26.6667 28.8083 26.55 28.925C26.4333 29.0417 26.375 29.1917 26.375 29.375C26.375 29.5583 26.4333 29.7083 26.55 29.825C26.6667 29.9417 26.8167 30 27 30ZM26.55 28.1H27.475V27.85C27.475 27.6667 27.5208 27.5042 27.6125 27.3625C27.7042 27.2208 27.8167 27.0833 27.95 26.95C28.1833 26.75 28.3667 26.5583 28.5 26.375C28.6333 26.1917 28.7 25.9333 28.7 25.6C28.7 25.1167 28.5417 24.7292 28.225 24.4375C27.9083 24.1458 27.5 24 27 24C26.6167 24 26.2708 24.1125 25.9625 24.3375C25.6542 24.5625 25.4333 24.8667 25.3 25.25L26.1 25.6C26.15 25.4 26.2542 25.225 26.4125 25.075C26.5708 24.925 26.7667 24.85 27 24.85C27.25 24.85 27.4458 24.9125 27.5875 25.0375C27.7292 25.1625 27.8 25.35 27.8 25.6C27.8 25.7833 27.75 25.9375 27.65 26.0625C27.55 26.1875 27.4333 26.3167 27.3 26.45C27.2 26.55 27.0958 26.65 26.9875 26.75C26.8792 26.85 26.7833 26.9667 26.7 27.1C26.65 27.2 26.6125 27.3 26.5875 27.4C26.5625 27.5 26.55 27.6167 26.55 27.75V28.1Z" fill="#1C9085"/>
</svg>
