<svg width="88" height="89" viewBox="0 0 88 89" fill="none" xmlns="http://www.w3.org/2000/svg">
<path d="M88.0002 44.4112C88.0002 56.1898 83.3211 67.486 74.9924 75.8147C66.6637 84.1434 55.3675 88.8224 43.589 88.8224C31.8104 88.8224 20.5142 84.1434 12.1855 75.8147C3.85676 67.486 -0.822266 56.1898 -0.822266 44.4112C-0.822266 32.6326 3.85676 21.3365 12.1855 13.0077C20.5142 4.67903 31.8104 0 43.589 0C55.3675 0 66.6637 4.67903 74.9924 13.0077C83.3211 21.3365 88.0002 32.6326 88.0002 44.4112ZM65.9611 27.5905C65.5646 27.1953 65.0924 26.8842 64.5729 26.6757C64.0533 26.4672 63.4971 26.3656 62.9374 26.377C62.3777 26.3884 61.826 26.5126 61.3154 26.742C60.8048 26.9715 60.3457 27.3016 59.9656 27.7126L40.6856 52.2776L29.0665 40.6529C28.2772 39.9175 27.2333 39.5171 26.1546 39.5361C25.076 39.5551 24.0469 39.9921 23.284 40.7549C22.5212 41.5178 22.0842 42.5469 22.0652 43.6256C22.0462 44.7042 22.4465 45.7481 23.182 46.5374L37.871 61.232C38.2667 61.627 38.7379 61.9382 39.2565 62.1471C39.7752 62.3561 40.3305 62.4584 40.8896 62.448C41.4486 62.4377 41.9998 62.3148 42.5103 62.0868C43.0208 61.8588 43.4802 61.5303 43.861 61.1209L66.0222 33.4194C66.7777 32.6339 67.195 31.5835 67.1847 30.4936C67.1743 29.4038 66.737 28.3615 65.9667 27.5905H65.9611Z" fill="#43BC98"/>
</svg>
